<svg width="1106" height="313" viewBox="0 0 1106 313" fill="none" xmlns="http://www.w3.org/2000/svg">
<path d="M6.34375 142.2V2.19994H59.3438C100.944 2.19994 126.744 29.7999 126.744 71.4C126.744 114.6 100.944 142.2 59.3438 142.2H6.34375ZM31.3438 119.2H56.9438C84.9438 119.2 101.744 100.6 101.744 72.5999C101.744 43.5999 84.9438 25.1999 56.9438 25.1999H31.3438V119.2ZM145.836 86.2C145.836 55.7999 165.036 40.4 195.436 40.4V62.3999C179.436 62.3999 169.836 70.1999 169.836 86.2V142.2H145.836V86.2ZM206.747 92.2C206.747 61.3999 227.547 40.7999 258.547 40.7999C289.547 40.7999 310.147 61.3999 310.147 92.2C310.147 123.2 289.547 144 258.547 144C227.547 144 206.747 123.2 206.747 92.2ZM230.747 92.3999C230.747 111 241.747 122 258.347 122C275.147 122 286.147 111 286.147 92.3999C286.147 73.7999 275.147 62.7999 258.347 62.7999C241.747 62.7999 230.747 73.7999 230.747 92.3999ZM329.089 13.1999C329.089 5.99994 334.889 -5.38826e-05 342.289 -5.38826e-05C349.689 -5.38826e-05 355.489 5.99994 355.489 13.1999C355.489 20.7999 349.689 26.5999 342.289 26.5999C334.889 26.5999 329.089 20.7999 329.089 13.1999ZM330.289 142.2V42.2H354.289V142.2H330.289ZM425.65 121.6V143.6C392.85 143.6 375.45 127 375.45 96.2V2.19994H399.45V42.2H422.25V64.1999H399.45V95.9999C399.45 114.2 406.85 121.6 425.65 121.6ZM268.912 197.024V230.432H302.832V237.856H268.912V271.776H306.672V279.2H259.952V189.6H306.672V197.024H268.912ZM367.335 279.2L349.287 251.04L331.879 279.2H322.407L344.935 244.256L322.663 209.312H332.775L350.567 237.088L367.847 209.312H377.191L354.919 243.872L377.447 279.2H367.335ZM404.835 224.672C407.053 219.979 410.552 216.096 415.331 213.024C420.195 209.867 425.955 208.288 432.611 208.288C438.925 208.288 444.6 209.781 449.635 212.768C454.755 215.669 458.723 219.851 461.539 225.312C464.44 230.688 465.891 236.96 465.891 244.128C465.891 251.296 464.44 257.611 461.539 263.072C458.723 268.533 454.755 272.757 449.635 275.744C444.6 278.731 438.925 280.224 432.611 280.224C426.04 280.224 420.323 278.688 415.459 275.616C410.595 272.459 407.053 268.533 404.835 263.84V312.224H396.003V209.312H404.835V224.672ZM456.803 244.128C456.803 238.325 455.651 233.333 453.347 229.152C451.128 224.885 448.056 221.643 444.131 219.424C440.205 217.205 435.768 216.096 430.819 216.096C426.04 216.096 421.645 217.248 417.635 219.552C413.709 221.856 410.595 225.141 408.291 229.408C405.987 233.675 404.835 238.624 404.835 244.256C404.835 249.888 405.987 254.837 408.291 259.104C410.595 263.371 413.709 266.656 417.635 268.96C421.645 271.264 426.04 272.416 430.819 272.416C435.768 272.416 440.205 271.307 444.131 269.088C448.056 266.784 451.128 263.499 453.347 259.232C455.651 254.88 456.803 249.845 456.803 244.128ZM552.009 240.672C552.009 243.744 551.924 246.091 551.753 247.712H493.769C494.025 253.003 495.305 257.525 497.609 261.28C499.913 265.035 502.943 267.893 506.697 269.856C510.452 271.733 514.548 272.672 518.985 272.672C524.788 272.672 529.652 271.264 533.577 268.448C537.588 265.632 540.233 261.835 541.513 257.056H550.985C549.279 263.883 545.609 269.472 539.977 273.824C534.431 278.091 527.433 280.224 518.985 280.224C512.415 280.224 506.527 278.773 501.321 275.872C496.116 272.885 492.02 268.704 489.033 263.328C486.132 257.867 484.681 251.509 484.681 244.256C484.681 237.003 486.132 230.645 489.033 225.184C491.935 219.723 495.988 215.541 501.193 212.64C506.399 209.739 512.329 208.288 518.985 208.288C525.641 208.288 531.444 209.739 536.393 212.64C541.428 215.541 545.268 219.467 547.913 224.416C550.644 229.28 552.009 234.699 552.009 240.672ZM542.921 240.416C543.007 235.211 541.94 230.773 539.721 227.104C537.588 223.435 534.644 220.661 530.889 218.784C527.135 216.907 523.039 215.968 518.601 215.968C511.945 215.968 506.271 218.101 501.577 222.368C496.884 226.635 494.281 232.651 493.769 240.416H542.921ZM583.763 221.728C585.725 217.376 588.712 214.005 592.723 211.616C596.819 209.227 601.811 208.032 607.699 208.032V217.376H605.267C598.781 217.376 593.576 219.125 589.651 222.624C585.725 226.123 583.763 231.968 583.763 240.16V279.2H574.803V209.312H583.763V221.728ZM639.226 216.864V260.256C639.226 264.523 640.036 267.467 641.658 269.088C643.279 270.709 646.138 271.52 650.234 271.52H658.426V279.2H648.826C642.511 279.2 637.818 277.749 634.746 274.848C631.674 271.861 630.138 266.997 630.138 260.256V216.864H620.41V209.312H630.138V191.776H639.226V209.312H658.426V216.864H639.226ZM684.082 196.128C682.29 196.128 680.754 195.488 679.474 194.208C678.194 192.928 677.554 191.349 677.554 189.472C677.554 187.595 678.194 186.059 679.474 184.864C680.754 183.584 682.29 182.944 684.082 182.944C685.874 182.944 687.41 183.584 688.69 184.864C689.97 186.059 690.61 187.595 690.61 189.472C690.61 191.349 689.97 192.928 688.69 194.208C687.41 195.488 685.874 196.128 684.082 196.128ZM688.562 209.312V279.2H679.602V209.312H688.562ZM739.316 280.224C731.295 280.224 724.724 278.389 719.604 274.72C714.57 270.965 711.754 265.888 711.156 259.488H720.372C720.799 263.413 722.634 266.613 725.876 269.088C729.204 271.477 733.642 272.672 739.188 272.672C744.052 272.672 747.85 271.52 750.58 269.216C753.396 266.912 754.804 264.053 754.804 260.64C754.804 258.251 754.036 256.288 752.5 254.752C750.964 253.216 749.002 252.021 746.612 251.168C744.308 250.229 741.151 249.248 737.14 248.224C731.935 246.859 727.711 245.493 724.468 244.128C721.226 242.763 718.452 240.757 716.148 238.112C713.93 235.381 712.82 231.755 712.82 227.232C712.82 223.819 713.844 220.661 715.892 217.76C717.94 214.859 720.842 212.555 724.596 210.848C728.351 209.141 732.618 208.288 737.396 208.288C744.906 208.288 750.964 210.208 755.572 214.048C760.18 217.803 762.655 223.008 762.996 229.664H754.036C753.78 225.568 752.159 222.283 749.172 219.808C746.271 217.248 742.26 215.968 737.14 215.968C732.618 215.968 728.948 217.035 726.132 219.168C723.316 221.301 721.908 223.947 721.908 227.104C721.908 229.835 722.719 232.096 724.34 233.888C726.047 235.595 728.138 236.96 730.612 237.984C733.087 238.923 736.415 239.989 740.596 241.184C745.631 242.549 749.642 243.872 752.628 245.152C755.615 246.432 758.175 248.309 760.308 250.784C762.442 253.259 763.551 256.544 763.636 260.64C763.636 264.395 762.612 267.765 760.564 270.752C758.516 273.653 755.658 275.957 751.988 277.664C748.319 279.371 744.095 280.224 739.316 280.224ZM850.134 240.672C850.134 243.744 850.049 246.091 849.878 247.712H791.894C792.15 253.003 793.43 257.525 795.734 261.28C798.038 265.035 801.068 267.893 804.822 269.856C808.577 271.733 812.673 272.672 817.11 272.672C822.913 272.672 827.777 271.264 831.702 268.448C835.713 265.632 838.358 261.835 839.638 257.056H849.11C847.404 263.883 843.734 269.472 838.102 273.824C832.556 278.091 825.558 280.224 817.11 280.224C810.54 280.224 804.652 278.773 799.446 275.872C794.241 272.885 790.145 268.704 787.158 263.328C784.257 257.867 782.806 251.509 782.806 244.256C782.806 237.003 784.257 230.645 787.158 225.184C790.06 219.723 794.113 215.541 799.318 212.64C804.524 209.739 810.454 208.288 817.11 208.288C823.766 208.288 829.569 209.739 834.518 212.64C839.553 215.541 843.393 219.467 846.038 224.416C848.769 229.28 850.134 234.699 850.134 240.672ZM841.046 240.416C841.132 235.211 840.065 230.773 837.846 227.104C835.713 223.435 832.769 220.661 829.014 218.784C825.26 216.907 821.164 215.968 816.726 215.968C810.07 215.968 804.396 218.101 799.702 222.368C795.009 226.635 792.406 232.651 791.894 240.416H841.046Z" fill="#002248"/>
<path d="M443.844 142.2V2.19994H468.844V59.9999H530.044V2.19994H555.044V142.2H530.044V83H468.844V142.2H443.844ZM625.686 40.7999C656.686 40.7999 677.486 61.5999 677.486 92.5999V142.2H653.486V132.6C648.686 138.8 638.486 144 623.886 144C594.886 144 574.086 123.2 574.086 92.2C574.086 61.3999 594.886 40.7999 625.686 40.7999ZM653.486 92.3999C653.486 73.7999 642.486 62.7999 625.886 62.7999C609.086 62.7999 598.086 73.7999 598.086 92.3999C598.086 111 609.086 122 625.886 122C642.486 122 653.486 111 653.486 92.3999ZM696.661 2.19994H720.661V51.9999C725.461 45.7999 735.661 40.5999 750.061 40.5999C779.261 40.5999 800.061 61.3999 800.061 92.3999C800.061 123.2 779.261 143.8 748.861 143.8C719.661 143.8 696.661 124.6 696.661 92.3999V2.19994ZM776.061 92.2C776.061 73.5999 765.061 62.5999 748.261 62.5999C731.661 62.5999 720.661 73.5999 720.661 92.2C720.661 110.8 731.661 121.8 748.261 121.8C765.061 121.8 776.061 110.8 776.061 92.2ZM818.933 13.1999C818.933 5.99994 824.733 -5.38826e-05 832.133 -5.38826e-05C839.533 -5.38826e-05 845.333 5.99994 845.333 13.1999C845.333 20.7999 839.533 26.5999 832.133 26.5999C824.733 26.5999 818.933 20.7999 818.933 13.1999ZM820.133 142.2V42.2H844.133V142.2H820.133ZM915.494 121.6V143.6C882.694 143.6 865.294 127 865.294 96.2V2.19994H889.294V42.2H912.094V64.1999H889.294V95.9999C889.294 114.2 896.694 121.6 915.494 121.6ZM980.334 40.7999C1011.33 40.7999 1032.13 61.5999 1032.13 92.5999V142.2H1008.13V132.6C1003.33 138.8 993.134 144 978.534 144C949.534 144 928.734 123.2 928.734 92.2C928.734 61.3999 949.534 40.7999 980.334 40.7999ZM1008.13 92.3999C1008.13 73.7999 997.134 62.7999 980.534 62.7999C963.734 62.7999 952.734 73.7999 952.734 92.3999C952.734 111 963.734 122 980.534 122C997.134 122 1008.13 111 1008.13 92.3999ZM1102.49 121.6V143.6C1069.69 143.6 1052.29 127 1052.29 96.2V2.19994H1076.29V42.2H1099.09V64.1999H1076.29V95.9999C1076.29 114.2 1083.69 121.6 1102.49 121.6Z" fill="#D1B48C"/>
</svg>
